HIERARCHY
ROOT Hips
{
  OFFSET 3.13124 94.3669 -3.18751
  CHANNELS  6 Xposition Yposition Zposition Zrotation Xrotation Yrotation
  JOINT LeftUpLeg
  {
    OFFSET 8.64259 1.95398 -2.38835
    CHANNELS 3 Zrotation Xrotation Yrotation
    JOINT LeftLeg
    {
      OFFSET 43.7702 0 0
      CHANNELS 3 Zrotation Xrotation Yrotation
      JOINT LeftFoot
      {
        OFFSET 40.6238 0 0
        CHANNELS 3 Zrotation Xrotation Yrotation
        JOINT LeftToeBase
        {
          OFFSET 12.7242 0 0
          CHANNELS 3 Zrotation Xrotation Yrotation
          End Site
          {
            OFFSET 0 0 0
          }
        }
      }
    }
  }
  JOINT RightUpLeg
  {
    OFFSET -8.2249 1.95398 -2.59336
    CHANNELS 3 Zrotation Xrotation Yrotation
    JOINT RightLeg
    {
      OFFSET 43.5653 0 0
      CHANNELS 3 Zrotation Xrotation Yrotation
      JOINT RightFoot
      {
        OFFSET 40.6238 0 0
        CHANNELS 3 Zrotation Xrotation Yrotation
        JOINT RightToeBase
        {
          OFFSET 12.7242 0 0
          CHANNELS 3 Zrotation Xrotation Yrotation
          End Site
          {
            OFFSET 0 0 0
          }
        }
      }
    }
  }
  JOINT Spine
  {
    OFFSET 0.165834 0.87714 6.61349
    CHANNELS 3 Zrotation Xrotation Yrotation
    JOINT Spine1
    {
      OFFSET 7.38962 1.71661e-005 0
      CHANNELS 3 Zrotation Xrotation Yrotation
      JOINT Spine2
      {
        OFFSET 11.9445 1.14441e-005 0
        CHANNELS 3 Zrotation Xrotation Yrotation
        JOINT Spine3
        {
          OFFSET 14.7254 4.19617e-005 0
          CHANNELS 3 Zrotation Xrotation Yrotation
          JOINT Spine4
          {
            OFFSET 10.9679 0 0
            CHANNELS 3 Zrotation Xrotation Yrotation
            JOINT RightShoulder
            {
              OFFSET 2.46616 -1.6653 3.69651
              CHANNELS 3 Zrotation Xrotation Yrotation
              JOINT RightArm
              {
                OFFSET 13.0012 0 0
                CHANNELS 3 Zrotation Xrotation Yrotation
                JOINT RightForeArm
                {
                  OFFSET 28.7848 1.52588e-005 0
                  CHANNELS 3 Zrotation Xrotation Yrotation
                  JOINT RightHand
                  {
                    OFFSET 26.5688 1.52588e-005 0
                    CHANNELS 3 Zrotation Xrotation Yrotation
                    End Site
                    {
                      OFFSET 0 0 0
                    }
                  }
                }
              }
            }
            JOINT LeftShoulder
            {
              OFFSET 2.38034 -1.29275 -3.75231
              CHANNELS 3 Zrotation Xrotation Yrotation
              JOINT LeftArm
              {
                OFFSET 16.3182 6.10352e-005 0
                CHANNELS 3 Zrotation Xrotation Yrotation
                JOINT LeftForeArm
                {
                  OFFSET 27.0901 0 0
                  CHANNELS 3 Zrotation Xrotation Yrotation
                  JOINT LeftHand
                  {
                    OFFSET 24.5451 1.52588e-005 0
                    CHANNELS 3 Zrotation Xrotation Yrotation
                    End Site
                    {
                      OFFSET 0 0 0
                    }
                  }
                }
              }
            }
            JOINT Neck
            {
              OFFSET 5.0226 -0.0266342 0
              CHANNELS 3 Zrotation Xrotation Yrotation
              JOINT Head
              {
                OFFSET 6.69363 2.86102e-005 0
                CHANNELS 3 Zrotation Xrotation Yrotation
                End Site
                {
                  OFFSET 0 0 0
                }
              }
            }
          }
        }
      }
    }
  }
}
MOTION
Frames:	12
Frame Time:	0.0333333
-4.48596 93.7251 99.8774 90.8528 -25.9292 89.9256 -179.271 21.483 89.0862 -55.511 -8.18272 9.59081 41.9771 3.12243 1.77636 28.7808 3.30275e-006 1.0879e-006 -178.531 6.54202 91.9228 -13.2739 23.696 1.29375 66.2552 -2.84515 -1.56017 28.7808 1.50894e-005 2.53958e-005 -0.434609 7.10433 -88.7387 12.6433 -0.695201 -0.508506 0.972433 -0.716893 -0.477409 -21.5628 -0.510233 -0.693921 -1.55019 -0.510242 -0.693939 74.5266 -60.7873 -119.181 4.24698 35.7504 19.1791 68.5909 14.7956 -87.7165 26.0691 0.649523 -2.24361 -111.327 -57.4468 51.6281 -17.9407 -17.2068 -14.8043 -22.6692 -31.9159 -43.4146 38.2426 -12.8868 -38.3255 -8.01991 -1.95581 9.89785 -0.571996 -2.53638 8.25546 
-4.2876 93.7578 100.395 89.9274 -23.1334 89.116 -178.784 24.4191 89.158 -53.1962 -13.2344 7.68204 43.9745 5.94747 4.14023 28.7808 3.30275e-006 1.0879e-006 -178.6 6.92773 91.7025 -13.2304 26.2422 1.51107 66.9306 -3.17004 -1.72135 28.7808 1.50894e-005 2.53958e-005 -0.413465 7.06569 -88.7609 12.7228 -0.579695 -0.418225 1.05194 -0.597565 -0.39231 -21.4833 -0.427205 -0.573098 -1.47065 -0.427238 -0.573134 74.1822 -60.5967 -119.708 3.48212 33.3323 20.6853 65.1984 22.2995 -84.0434 23.2777 -0.410579 -6.93328 -112.287 -57.9014 50.5891 -18.278 -16.0708 -25.2484 -1.66581 -46.1303 -7.12191 28.1111 -12.1235 -46.2857 -12.0316 -2.83902 9.99771 2.71093 -2.85514 8.13172 
-3.94859 93.6395 100.87 89.068 -20.3105 88.6352 -178.439 26.4113 89.5619 -49.5587 -14.605 6.25525 45.7367 7.68088 5.46844 28.7808 3.30275e-006 1.0879e-006 -178.681 7.67968 91.71 -14.1048 30.1753 1.90618 68.0187 -2.35265 -1.27343 28.7808 1.50894e-005 2.53958e-005 -0.362159 7.03919 -89.0749 12.7849 -0.480965 -0.303142 1.11405 -0.49386 -0.281682 -21.4213 -0.367626 -0.433678 -1.40864 -0.367638 -0.433689 73.3969 -58.7402 -121.508 5.31483 29.9858 24.2147 64.124 26.6912 -81.9975 12.0374 -0.647266 -10.6531 -112.689 -58.401 50.303 -18.8714 -15.6803 -21.5172 1.65799 -44.3068 -2.5703 29.2514 -10.4721 -39.9924 -15.616 -3.54474 9.81538 5.6974 -3.04737 8.07622 
-3.46558 93.409 101.329 88.3293 -17.5814 88.4691 -178.269 27.8158 90.2717 -44.9464 -14.2084 5.57224 47.538 9.2743 6.59299 28.7808 3.30275e-006 1.0879e-006 -178.779 8.58586 91.8699 -15.7332 32.6835 2.19703 69.2792 -1.83292 -1.01341 28.7808 1.50894e-005 2.53958e-005 -0.290689 7.0188 -89.4339 12.8308 -0.409587 -0.236397 1.15988 -0.419609 -0.218143 -21.3754 -0.31962 -0.348563 -1.36279 -0.319625 -0.348581 73.3492 -57.8426 -121.954 7.42096 27.7442 25.7887 66.0608 29.5949 -82.0691 -2.72312 0.183303 -16.3196 -112.386 -58.7889 50.8639 -19.4646 -15.4322 -17.1288 1.63984 -45.5019 -2.56307 33.531 -10.0503 -34.5031 -19.285 -4.20072 9.77684 9.41914 -3.20937 7.37933 
-2.82755 93.1167 101.708 87.5952 -15.1819 88.4099 -178.26 29.1334 91.2508 -39.8895 -13.1993 5.23658 47.4304 10.5651 7.62403 28.7808 3.30275e-006 1.0879e-006 -178.855 9.53675 92.0722 -17.5466 35.0909 2.4789 70.5748 -1.00104 -0.622568 28.7808 1.50894e-005 2.53958e-005 -0.185473 6.99298 -89.7711 12.8864 -0.303334 -0.195995 1.21554 -0.311703 -0.182445 -21.3197 -0.230404 -0.278089 -1.30703 -0.230423 -0.278105 73.723 -57.6255 -121.555 9.26395 26.057 27.6637 79.1519 32.4602 -88.597 -12.416 1.96164 -24.0949 -110.819 -59.1817 53.0393 -19.2156 -15.5519 -14.6921 1.58935 -51.1817 -2.48276 40.3757 -8.8571 -26.4933 -23.332 -4.48747 9.0886 14.0168 -2.84202 7.77955 
-2.00165 92.7461 102.005 87.0106 -12.9926 88.5438 -177.585 29.8761 92.7675 -34.1056 -12.7101 3.86156 47.3205 11.071 8.04448 28.7808 3.30275e-006 1.0879e-006 -178.95 10.3592 92.367 -19.5893 37.1918 2.73014 72.0727 0.0440122 -0.167417 28.7808 1.50894e-005 2.53958e-005 -0.0505932 6.98221 -90.186 12.9091 -0.217768 -0.158715 1.23821 -0.22455 -0.148978 -21.297 -0.16001 -0.216817 -1.28431 -0.160023 -0.216839 74.1938 -57.906 -120.799 10.136 25.1769 30.709 87.7386 32.4698 -93.2624 -12.7533 2.48925 -28.5714 -107.987 -59.8759 56.9572 -18.4468 -15.8914 -12.2862 1.53184 -59.1077 -2.3659 42.4133 -9.04862 -25.8531 -27.3556 -4.82628 8.39998 18.7072 -2.62693 7.73327 
-1.08717 92.2931 102.184 86.4629 -11.2165 88.657 -177.48 30.3104 94.0683 -27.9739 -12.6057 3.11494 47.1643 10.8336 7.8869 28.7808 3.30275e-006 1.0879e-006 -179.078 11.2145 92.5609 -21.8123 38.7364 2.91899 73.6651 0.898702 0.154367 28.7808 1.50894e-005 2.53958e-005 0.116067 6.96337 -90.5345 12.9431 -0.119534 -0.117088 1.27214 -0.124563 -0.111727 -21.263 -0.0787971 -0.147546 -1.25033 -0.0788302 -0.147572 74.5213 -58.5737 -120.086 9.64996 25.1922 33.2344 93.0952 31.7659 -96.1033 -10.982 2.17897 -29.1184 -104.063 -60.5465 62.2684 -18.2821 -15.9653 -9.10028 1.51918 -61.3621 -2.33023 40.5491 -9.41799 -27.8443 -30.6943 -4.94015 7.78257 21.9087 -2.46173 7.2127 
-0.153149 91.932 102.274 85.9483 -9.81698 88.8814 -177.316 30.659 95.3576 -22.022 -11.9251 2.73496 47.528 10.206 7.36352 28.7808 3.30275e-006 1.0879e-006 -179.097 11.8822 92.8378 -23.6409 40.5139 3.13902 74.7764 2.02771 0.600235 28.7808 1.50894e-005 2.53958e-005 0.2224 6.95759 -90.7109 12.9525 -0.0736507 -0.090883 1.28157 -0.0776294 -0.0874622 -21.2536 -0.0427266 -0.109373 -1.24089 -0.0427492 -0.109393 74.3441 -59.487 -119.946 8.97612 25.3265 34.7306 86.8292 31.9814 -92.7679 -10.5003 1.83193 -26.3591 -99.5554 -60.5775 68.1443 -17.9772 -16.0751 -6.21999 1.51565 -62.0861 -2.31845 38.3457 -9.16559 -28.5208 -32.7535 -4.70363 7.2388 23.2671 -2.22475 6.53795 
0.836243 91.5636 102.236 85.5969 -8.60705 89.3636 -176.955 30.7956 96.4546 -16.4731 -10.54 2.76463 47.5412 9.34436 6.70369 28.7808 3.30275e-006 1.0879e-006 -179.038 12.167 93.2549 -25.0827 42.0211 3.34326 75.8929 3.04661 0.978759 28.7808 1.50894e-005 2.53958e-005 0.304062 6.96846 -90.8517 12.9276 -0.0554838 -0.140333 1.25661 -0.0614741 -0.137744 -21.2785 -0.0115743 -0.150569 -1.26584 -0.0115819 -0.150585 74.3215 -60.2573 -119.663 8.01425 25.6149 35.5016 77.2655 32.1427 -87.6077 -10.34 1.50765 -22.9791 -95.9577 -59.824 72.6801 -18.3873 -15.9187 -2.78856 1.52469 -60.4211 -2.34523 37.0291 -9.29432 -29.6821 -33.6191 -4.3814 7.20968 23.1783 -2.09819 5.42595 
1.8248 91.2816 102.088 85.2833 -7.16532 89.8932 -176.881 31.1866 97.3391 -12.0092 -10.36 3.09669 47.1715 9.43114 6.81976 28.7808 3.30275e-006 1.0879e-006 -178.933 12.2028 93.6327 -26.1419 43.8479 3.6191 76.729 4.03818 1.35297 28.7808 1.50894e-005 2.53958e-005 0.322279 6.97379 -90.8804 12.915 -0.0777086 -0.211014 1.24408 -0.0866931 -0.207475 -21.2909 -0.0123417 -0.22408 -1.27828 -0.0123466 -0.224089 74.4173 -61.0247 -119.228 6.08506 26.4249 36.7439 72.3554 31.1956 -85.0891 -9.31277 1.04175 -19.0924 -93.4274 -58.6507 75.7868 -18.9991 -15.7409 0.653799 1.53953 -58.4371 -2.37614 36.2327 -9.0863 -29.6935 -34.1551 -4.05877 6.8734 23.3261 -1.95443 4.63363 
2.89184 90.9056 101.723 84.8884 -6.11397 90.4165 -176.809 32.0164 98.1878 -9.36032 -11.7047 3.12035 48.1414 9.62193 6.87914 28.7808 3.30275e-006 1.0879e-006 -178.93 12.4735 93.8871 -27.573 45.2403 3.87271 77.736 5.17009 1.75598 28.7808 1.50894e-005 2.53958e-005 0.439925 6.94115 -91.0099 12.9769 0.0162927 -0.345463 1.30588 0.00104376 -0.345843 -21.2289 0.119354 -0.324586 -1.21627 0.119355 -0.324604 75.1651 -61.3608 -118.128 4.80373 26.9094 35.0837 71.3884 33.3492 -84.0824 -12.8015 1.56929 -19.9205 -92.4862 -57.7306 76.8664 -19.0196 -15.7341 3.35538 1.53251 -59.2776 -2.36316 38.2393 -9.17477 -28.5941 -34.6425 -4.04509 6.7323 23.9069 -2.03227 4.1251 
4.03587 90.6543 101.22 84.4882 -5.09979 90.9125 -176.539 32.8011 98.9796 -8.03029 -13.0335 2.65381 48.4786 9.91612 7.06584 28.7808 3.30275e-006 1.0879e-006 -178.855 12.2092 94.027 -27.9719 46.7768 4.12229 78.4556 6.30872 2.16455 28.7808 1.50894e-005 2.53958e-005 0.527245 6.90475 -91.0596 13.0506 0.141287 -0.508748 1.37957 0.118741 -0.514474 -21.155 0.287652 -0.442756 -1.14238 0.287643 -0.44278 76.0396 -61.4818 -116.943 4.02761 26.9045 31.7669 71.0264 37.4127 -82.9845 -16.7049 2.56161 -23.2618 -92.1853 -57.1145 77.1375 -18.3785 -15.9173 4.9701 1.51173 -62.9102 -2.30488 40.804 -9.10537 -26.9007 -34.9009 -4.04072 6.58914 24.6026 -2.08771 3.8159 
